<svg width="207" height="75" viewBox="0 0 207 75" fill="none" xmlns="http://www.w3.org/2000/svg">
<path fill-rule="evenodd" clip-rule="evenodd" d="M37.7857 4.18211C18.8967 4.18211 3.59787 19.1241 3.59787 37.5725C3.59787 56.0212 18.8967 70.9631 37.7857 70.9631C56.6597 70.9631 71.9737 56.0202 71.9737 37.5725C71.9737 19.1251 56.6597 4.18211 37.7857 4.18211ZM0 37.5725C0 17.1834 16.9097 0.668152 37.7857 0.668152C58.6459 0.668152 75.5717 17.1834 75.5717 37.5725C75.5717 57.9617 58.6459 74.4772 37.7857 74.4772C16.9097 74.4772 0 57.9617 0 37.5725Z" fill="#22144F"/>
<path d="M56.4585 29.828H38.3889L34.2443 22.781H60.5902L56.4585 29.828Z" fill="#22144F" stroke="#22144F" stroke-width="2.78186"/>
<path d="M38.163 60.6124L15.4803 22.7807H23.817L37.7739 46.0578L38.1633 46.7073L38.5524 46.0575L43.1127 38.4439H51.4493L38.163 60.6124Z" fill="#22144F" stroke="#22144F" stroke-width="2.78186"/>
<path d="M147.044 10.6027C149.637 8.16129 152.749 6.97452 156.378 6.97452C160.008 6.97452 163.12 8.1952 165.678 10.6027C168.271 13.0441 169.516 15.9601 169.516 19.4868C169.516 23.0132 168.236 25.9632 165.713 28.4044C163.154 30.812 160.043 31.9989 156.378 31.9989C152.749 31.9989 149.637 30.7782 147.044 28.4044C144.486 25.9632 143.242 23.0132 143.242 19.4868C143.242 15.9601 144.521 13.0441 147.044 10.6027ZM150.916 24.9458C152.403 26.404 154.235 27.1159 156.378 27.1159C158.522 27.1159 160.32 26.4041 161.806 24.9119C163.327 23.4201 164.053 21.5891 164.053 19.4868C164.053 17.3844 163.327 15.5873 161.841 14.0952C160.354 12.6033 158.522 11.8573 156.378 11.8573C154.235 11.8573 152.403 12.6033 150.916 14.0952C149.43 15.5873 148.704 17.3844 148.704 19.4868C148.669 21.6569 149.43 23.4879 150.916 24.9458Z" fill="#22144F"/>
<path d="M184.45 31.5242V7.34744H189.29L201.079 22.3687V7.34744H206.334V31.4903H201.874L189.705 16.0958V31.5242H184.45Z" fill="#22144F"/>
<path d="M173.629 31.5242V7.34744H179.057V31.4903H173.629V31.5242Z" fill="#22144F"/>
<path d="M141.79 11.4843L138.09 14.5699C136.431 12.7389 134.357 11.8234 131.833 11.8234C129.655 11.8234 127.788 12.5355 126.302 13.9935C124.781 15.4515 124.055 17.2486 124.055 19.419C124.055 21.5891 124.781 23.4201 126.267 24.8442C127.788 26.2682 129.621 26.9804 131.833 26.9804C134.391 26.9804 136.466 26.031 138.125 24.2001L141.824 27.2857C139.3 30.168 135.74 31.8292 131.833 31.8292C128.134 31.8292 125.023 30.6426 122.43 28.3028C119.872 25.9633 118.593 23.0132 118.593 19.4529C118.593 15.8923 119.872 12.9424 122.43 10.5349C124.988 8.12737 128.134 6.97452 131.833 6.97452C135.774 6.97452 139.3 8.66992 141.79 11.4843Z" fill="#22144F"/>
<path d="M103.347 31.5233L93.2518 7.34668H99.0597L105.767 23.6905L112.439 7.34668H118.247L108.152 31.5233H103.347Z" fill="#22144F"/>
<path d="M106.465 67C111.593 67 115.207 64.2527 115.207 59.7541C115.207 54.8434 111.145 53.5728 107.325 52.3709C103.677 51.272 102.748 50.4821 102.748 49.0055C102.748 47.6319 103.918 46.6016 105.914 46.6016C108.358 46.6016 109.665 47.8723 110.526 49.6923L114.518 47.3915C112.901 44.0261 109.872 42 105.914 42C101.784 42 97.9981 44.6099 97.9981 49.1429C97.9981 53.7102 101.577 55.2555 105.26 56.3201C108.839 57.3503 110.457 58.0371 110.457 59.8228C110.457 61.1621 109.459 62.364 106.602 62.364C103.608 62.364 101.922 60.9217 101.061 58.6896L97 61.0591C98.3078 64.6305 101.543 67 106.465 67Z" fill="#22144F"/>
<path d="M133.366 42.4808H115.641V47.0137H122.111V66.5192H126.861V47.0137H133.366V42.4808Z" fill="#22144F"/>
<path d="M149.757 66.5192H154.919L146.453 42.4808H140.568L132.135 66.5192H137.264L138.709 62.1923H148.311L149.757 66.5192ZM140.223 57.7624L143.527 47.9409L146.831 57.7624H140.223Z" fill="#22144F"/>
<path d="M171.446 42.4808H153.721V47.0137H160.192V66.5192H164.941V47.0137H171.446V42.4808Z" fill="#22144F"/>
<path d="M181.758 67C186.886 67 190.5 64.2527 190.5 59.7541C190.5 54.8434 186.439 53.5728 182.619 52.3709C178.97 51.272 178.041 50.4821 178.041 49.0055C178.041 47.6319 179.211 46.6016 181.207 46.6016C183.651 46.6016 184.959 47.8723 185.819 49.6923L189.812 47.3915C188.194 44.0261 185.165 42 181.207 42C177.077 42 173.292 44.6099 173.292 49.1429C173.292 53.7102 176.871 55.2555 180.554 56.3201C184.133 57.3503 185.75 58.0371 185.75 59.8228C185.75 61.1621 184.752 62.364 181.896 62.364C178.901 62.364 177.215 60.9217 176.355 58.6896L172.293 61.0591C173.601 64.6305 176.836 67 181.758 67Z" fill="#22144F"/>
</svg>
