<svg version="1" xmlns="http://www.w3.org/2000/svg" width="1024" height="1024" viewBox="0 0 768.000000 768.000000"><path d="M360.9 8.5c-.3.2-4.3.6-8.9.9-4.7.3-10.3.8-12.5 1-2.2.3-6 .9-8.5 1.2-11.4 1.5-16.4 2.3-27 4.5-12.3 2.6-11.3 2.4-20.5 4.8-4.4 1.2-8.9 2.4-9.9 2.6-4.3 1-25.8 8.3-31.1 10.5-1.1.5-6.5 2.7-12 5-15.7 6.6-34.5 16.2-50 25.7-1.1.7-3.5 2-5.2 2.9-1.8 1-3.3 2.1-3.3 2.6 0 .4-.4.8-.9.8-1.5 0-17.7 11.3-19.3 13.5-.4.5-.8.7-.8.2 0-.4-.8.1-1.9 1-1 1-3.4 2.9-5.2 4.3-1.8 1.4-4.1 3.3-5.1 4.2-1 1-2 1.8-2.3 1.8-.3 0-1.3.8-2.3 1.7-1.1 1-4.7 4.3-8.2 7.3-3.5 3-11.6 10.7-17.9 17.1C97.7 132.5 94.6 135.9 87 145c-1.2 1.4-3.1 3.6-4.3 5-9.3 10.6-28.5 39.2-37.3 55.5-8.3 15.3-20.2 41.2-21.1 46-.2 1.1-.8 2.4-1.3 2.9-.6.6-1 1.6-1 2.4 0 .8-.6 2.8-1.4 4.5-2.2 5-9.8 30.6-11.1 38-.3 1.2-.8 3.5-1.1 5.2-.4 1.6-.8 3.9-1 5-.2 1.1-.5 3.1-.8 4.5-.3 1.4-.9 4.1-1.2 6-.4 1.9-.8 4.4-1.1 5.5-.2 1.1-.6 4.2-.8 7-.3 2.7-.7 6.1-1 7.4-2 10.2-2.8 58.5-1.2 74.1.4 4.1 1 10 1.3 13 .3 3 .7 6.1.9 6.8.3.7.8 3.9 1.1 7 .3 3.1.8 6 1 6.3.2.4.6 2.4 1 4.5.3 2.2.9 5.5 1.4 7.4.5 1.9 1.2 4.8 1.5 6.5.3 1.6 1.6 7 3.1 12 1.4 4.9 2.7 9.7 2.9 10.5 1.3 5.3 9.5 28.6 12.6 35.5 5.5 12.6 12.6 27.6 14.9 31.5.5.8 3.7 6.4 7.1 12.5 3.4 6 6.4 11.2 6.8 11.5.7.6 2.9 4 3.8 6 .4.8.9 1.7 1.3 2 .6.4 6.5 8.7 11 15.5 1.5 2.2 6.6 8.8 8.5 10.9.6.6 3 3.6 5.5 6.6 12.6 15.5 35.2 37.7 51.9 51 2.5 1.9 4.9 4 5.5 4.5.6.6 2.8 2.1 4.8 3.5 2.1 1.4 3.8 2.8 3.8 3.2 0 .5.6.8 1.4.8.8 0 1.6.3 1.8.7.5 1.3 7.8 6.5 7.8 5.6 0-.4.4-.3.8.3 1.2 1.9 14.9 10.5 31.2 19.7 9.1 5.1 27.6 14 37.5 18 3.3 1.3 6.9 2.8 8 3.2 1.1.5 2.2.9 2.5 1 .3.1 1.2.4 2 .8.8.3 5.1 1.8 9.5 3.2 4.4 1.5 8.7 3 9.5 3.3 2.5.9 16.9 5 20 5.7.8.1 3.5.8 6 1.5s5.4 1.4 6.5 1.6c1.1.2 3.1.6 4.5.9 2.8.6 15.8 3.1 20.5 3.9 1.7.2 7.1.9 12 1.5 5 .6 11 1.4 13.5 1.7 7.6.9 57.6 1.3 61.4.4 2.2-.5 3.6-.4 3.6.2 0 .5.4.7.9.4.9-.6 3.2-.9 14.1-2.1 8.5-.9 24.6-3.4 32-5 1.4-.3 3.8-.8 5.5-1.1 1.6-.3 8.2-1.9 14.5-3.5 6.3-1.6 12.3-3.2 13.2-3.4.9-.2 2.6-.9 3.7-1.5 1.2-.6 2.1-.8 2.1-.6 0 .5 23.6-7.5 27.5-9.3 1.1-.5 6.5-2.8 12-5.1 11.4-4.8 34.2-16.4 46-23.5 7.1-4.3 27.6-18 31.5-21.2.8-.6 5.1-4 9.5-7.4 24.9-19.6 51.4-47.1 69.3-71.9 3.4-4.7 6.5-9 7-9.5.9-1.1 9.4-14.5 13-20.3 1.2-2 3.2-5.6 4.4-8 1.2-2.3 2.6-4.2 3-4.2.4 0 .8-.4.8-1 0-.5 3.2-7.6 7.1-15.7 8.3-17.4 8-16.7 11.8-26.4 2.5-6.4 10.4-29.4 10.6-30.9.1-1 2.7-10.5 3.2-12 .3-.8.7-2.2.8-3 .1-.8 1.1-5.8 2.3-11 2.1-9.8 4.1-20.8 4.7-27 .2-1.9.6-4.4.8-5.5 2.8-12.6 2.9-68.1.1-87-.2-1.7-.7-5.3-.9-8-.3-2.8-.8-5.6-1.1-6.4-.2-.8-.7-3.7-1-6.5-.3-2.8-.8-5.4-1-5.7-.2-.4-.6-2.4-.9-4.5-.4-2.2-.9-4.8-1.2-5.9-.9-2.6-1.3-4.5-1.7-7-.2-1.1-1.1-4.5-2-7.6-.9-3.1-1.9-6.5-2.1-7.5-4-18.1-23.5-63.3-36.4-84.2-2.8-4.6-5.1-8.7-5.1-9.2s-.4-1-.8-1.2c-.4-.2-1.9-2.1-3.2-4.3-2.9-4.8-15.5-22.5-17.8-25.1-.9-1.1-2.9-3.5-4.3-5.4-7.8-10.3-24.7-28.2-41.2-43.7-4.3-3.9-7.7-6.9-7.7-6.7 0 .3-1.1-.6-2.4-1.9-1.3-1.3-7.7-6.3-14.2-11.3-6.5-4.9-12.1-9.2-12.4-9.5-.3-.3-.9-.8-1.5-1-.5-.2-5.6-3.4-11.2-7.2-5.6-3.7-10.7-6.7-11.2-6.7s-1.1-.3-1.3-.8c-1-2.3-40.5-21.6-57.3-28-11.3-4.3-26.9-9.6-31.5-10.7-.8-.2-5.1-1.3-9.5-2.5s-8.8-2.4-9.7-2.6c-8.4-1.9-12.1-2.7-14-2.8-1 0-1.8-.3-1.8-.6s-1.2-.6-2.7-.6c-1.6-.1-3.7-.4-4.9-.7-1.2-.3-4.5-.9-7.5-1.2-3-.4-6.3-.9-7.4-1-4.4-.6-13.9-1.7-18.3-2.1-6.3-.7-55.8-1.4-56.3-.9zM406 44.4c9.8.6 17.5 1.4 22.2 2.2 1.5.2 4.7.6 7 .9 2.4.3 5.4.7 6.8.9 1.4.3 4.1.8 6 1 1.9.3 6.2 1.2 9.6 2 3.4.8 7.2 1.7 8.5 2 1.3.3 3.9.9 5.7 1.5 1.7.5 3.2.8 3.2.6 0-.2 3 .7 6.8 1.9 3.7 1.3 7 2.4 7.4 2.5 1.9.4 4 1.1 14.8 5 6.3 2.3 12 4.3 12.5 4.4.6.1 1.2.4 1.5.7.3.3 3.2 1.6 6.5 2.9 13.5 5.4 52.3 26.7 53.3 29.3.2.4.8.8 1.3.8 1.5 0 14.8 9.8 30.3 22.4 9.7 7.8 41 38.6 39.2 38.6-.2 0 1.1 1.5 2.9 3.4 5.6 6 22.5 28.9 22.5 30.6 0 .4.3 1 .8 1.2 2.6 1.1 22.8 37.6 27.6 49.8 1 2.5 2.4 6.1 3.3 8 .8 1.9 1.9 4.4 2.3 5.5 1.2 2.7 5.2 13.8 5.5 15 .2 1.1.7 2.6 2.4 7.5.7 1.9 1.5 4.6 1.8 6 1 4.9 1.1 5.5 1.3 5.5.1 0 .3.7.5 1.5 2.1 8.3 3.5 14.1 3.9 16.1.2 1.3.7 3.5 1 4.9.6 2.6 1.3 6.9 2.2 13.5.3 2.2.7 5.3 1 7 1.5 9 2.7 27.6 2.7 42 0 13.3-1.5 38.6-2.7 44.5-.3 1.4-.8 4.5-1 7-.3 2.5-.8 5.6-1.1 7-.7 3.5-1.4 7-2 10.5-1.7 9.3-10.7 40.5-13.5 47-.5 1.1-2.3 5.6-4 10-6.1 15.6-26.4 54.3-29.1 55.3-.5.2-.9.8-.9 1.3 0 .8-5.9 9.9-7.1 10.9-.3.3-1 1.2-1.5 2.1-.9 1.6-1.8 2.8-11.6 15.2-12.7 16-28.8 32.4-46.3 46.9-15.7 13.1-15.3 12.8-20.5 16.3-2.5 1.6-4.7 3.2-5 3.5-2.4 2.6-25.1 16.2-38 22.7-5.2 2.6-9.8 5.2-10.2 5.8-.4.5-.8.7-.8.3 0-.4-2.1.4-4.7 1.9-2.7 1.5-5 2.6-5.3 2.5-.3 0-2.5.8-4.9 1.9-2.4 1-4.9 1.9-5.5 1.9-.7 0-1.6.4-2.1.8-.6.5-3.9 1.9-7.5 3.1-3.6 1.2-7.4 2.6-8.5 3.1-5.2 2.2-37.1 10.7-43.5 11.6-4 .5-6.5 1-10 1.8-2.7.6-8.4 1.4-14 2.1-1.9.2-6.2.7-9.5 1-3.3.4-8.2.9-11 1.1-8.5.6-42.6.6-50 0-16.2-1.4-25.4-2.5-27.9-3.2-1-.4-3.5-.8-5.5-1-4.5-.4-26.6-4.9-26.6-5.4 0-.1-.9-.3-2-.5-9.3-1.6-38-11.3-54-18.3-10.8-4.8-32-15.5-32.3-16.3-.2-.5-.8-.9-1.3-.9-1.8 0-29.6-17.8-33.9-21.7-1.4-1.3-3-2.3-3.7-2.3-.7 0-1.3-.4-1.3-.8 0-.5-1.9-2.2-4.2-3.9-2.4-1.7-5.5-4.1-6.9-5.4-1.4-1.3-4.5-4-7-6-4.6-3.8-25.2-24.1-30.4-30-2.5-2.8-16.8-20.6-20.8-25.9-4-5.2-11.7-17-11.7-17.9 0-.6-.4-1.1-.8-1.1-.5 0-1.6-1.5-2.5-3.3-.9-1.7-2.8-5-4.1-7.2-4.6-7.5-14.5-27.1-18.1-36.1-2-4.9-4.2-10.3-5-11.9-.7-1.7-2.9-7.8-4.9-13.8-3.6-11-6-19.3-8.1-28.8-.2-1.1-.6-2.8-.9-3.7-.3-.9-.8-3.3-1.2-5.2-.3-1.9-.7-4-.8-4.5-.9-3.3-1.8-8.5-2.1-11.5-.2-1.9-.4-3.5-.5-3.5-.1 0-.3-1.6-.5-3.5-.3-1.9-.7-5.2-1-7.2-2.6-18-2.3-59.2.6-77.8.5-3.6 1.1-8.3 1.4-10.5.2-2.2.6-4.9.8-6 .2-1.1.7-3.6 1.1-5.5 1.1-6.4 1.4-7.4 4.4-19.5 3.6-13.8 8.9-30.4 13.3-41.4 6.7-16.3 24.2-50.4 28.7-55.7.5-.6 2.2-3 3.7-5.5 3.3-5.2 18.7-26.1 21.2-28.7 1-1 4.3-4.7 7.3-8.2 5.5-6.4 18.7-19.9 27.1-27.6 3.5-3.2 14.8-12.4 27.4-22.2.6-.4 3.9-2.8 7.5-5.2 3.6-2.5 6.7-4.7 7-5 .3-.3 1.6-1.1 3-1.9 1.4-.8 5.2-3.1 8.5-5.1 3.3-2 8-4.7 10.5-6.1 2.5-1.3 4.7-2.7 4.8-3.2.2-.4.9-.7 1.5-.7s4.5-1.8 8.6-3.9c19.4-10 55.3-23 73.4-26.6 1-.2 2.6-.6 3.5-.9.9-.3 3.1-.8 4.7-1.1 3.5-.6 7-1.2 10.5-2 1.4-.3 3.9-.7 5.5-.9 1.7-.3 6-.9 9.8-1.5 7.8-1.3 12.8-1.8 28.7-2.7 6.3-.3 11.6-.7 11.7-.8.3-.3 22 .3 31.3.8z"/><path d="M119.7 213.3c1 1.7 2.1 3.3 2.6 3.5.4.2.7.8.7 1.3s1.1 2.8 2.6 5c1.4 2.2 3.3 5.5 4.3 7.2 2.7 4.8 25 41.8 26.9 44.7.9 1.4 1.7 2.7 1.7 3 0 .3.8 1.6 1.7 3 .9 1.4 6.9 11.3 13.2 22 6.4 10.7 12.1 20.2 12.6 21 1.4 2.3 10.2 16.9 12.9 21.5 1.3 2.2 3.2 5.2 4.2 6.7 1.1 1.4 1.9 2.9 1.9 3.3 0 .3 1.2 2.5 2.8 4.8 4.2 6.5 5.2 8.1 5.9 9.7.4.8 3.5 6.1 7 11.7 3.5 5.7 6.3 10.7 6.3 11.3 0 .5.4 1 .8 1s1.8 1.9 3 4.2c1.2 2.4 3.1 5.6 4.2 7.3 1.1 1.6 2.3 3.7 2.7 4.5.4.8 3.5 6.1 7 11.8 3.5 5.7 6.3 10.8 6.3 11.3s.3.9.8.9c.4 0 1.8 2.1 3.2 4.7 1.3 2.7 3.2 5.9 4.1 7.3 2.7 4 7.3 11.5 7.4 12 .1.8 4.2 7.3 5.4 8.7.6.7 1.1 1.5 1.1 1.8 0 .2 3.8 6.8 8.5 14.6s8.5 14.5 8.5 15 .5.9 1 .9c.6 0 1 .4 1 .9 0 .9 3.5 7.2 8 14.1 1.7 2.5 3.3 5.2 3.7 6 .4.8 2.2 3.8 4 6.7 1.8 2.9 3.3 5.5 3.3 5.8 0 .3 1.8 3.3 4 6.6s4 6.3 4 6.6c0 .3 1.3 2.5 3 5 1.7 2.4 3 4.6 3 4.8 0 .2 2.9 5.2 6.5 11 3.6 5.9 6.5 11.1 6.5 11.6s.5.9 1 .9c.6 0 1 .4 1 .9 0 .6 2.5 5 5.5 10s5.5 9.5 5.5 10.1c0 .5.4 1 .9 1s1.1.8 1.5 1.7c.3 1 2.2 4.3 4.1 7.3 1.9 3 3.8 6.3 4.1 7.2.4 1 1 1.8 1.5 1.8s.9.5.9 1c0 .6 1.2 2.9 2.7 5.3 1.5 2.3 3.1 5.1 3.7 6.2 3 5.5 16 26.6 16.6 27 .7.4 22.1-34.6 22.8-37.2.2-.7.8-1.3 1.3-1.3s.9-.7.9-1.5.5-1.5 1-1.5c.6 0 1-.5 1-1 0-.9 8.1-14.9 13.2-22.8 1-1.5 2.1-3.3 2.5-4.1 1.2-2.6 22.2-37.6 23.3-38.8.5-.7 1-1.4 1-1.6 0-.2 3.5-6.3 7.9-13.5 4.3-7.1 8.1-13.6 8.4-14.4.4-.7 3.2-5.3 6.2-10.2 3-4.9 5.5-9.3 5.5-9.7 0-.5.5-.9 1-.9.6 0 1-.5 1-1 0-.6 1.6-3.6 3.5-6.6 1.9-3 3.5-5.7 3.5-6 0-.3 1-2 2.2-3.7 1.3-1.8 3-4.5 3.8-6 .8-1.5 4.7-8 8.5-14.4 3.9-6.4 8.1-13.5 9.5-15.8 5.3-8.9 31.6-52.6 33.2-55.2 1-1.6 2.1-3.5 2.5-4.3.3-.8 1.9-3.4 3.5-5.8 1.6-2.3 2.5-4.2 2.1-4.2-.4 0-.3-.4.2-.8 1.1-.8 4.5-5.8 4.5-6.7 0-.3-30.7-.4-68.2-.3l-68.1.3-8.4 13.9c-4.6 7.6-8.3 14.1-8.3 14.3 0 .7-5.5 8.8-6.2 9.1-.5.2-.8.7-.8 1.2s-3 5.9-6.6 12.1l-6.7 11.3-2.3-3c-1.3-1.6-2.7-3.8-3-4.8-.4-1.1-1.1-2.4-1.6-3-1.7-2-7.8-12.1-9.1-14.9-.6-1.5-1.5-2.7-1.9-2.7-.5 0-.8-.4-.8-.9s-4.9-9-11-19.1c-6-10-11-18.6-11-19.1s-.4-.9-1-.9c-.5 0-1-.4-1-.9s-9-15.8-20-34.1c-11-18.2-20-33.3-20-33.5 0-.2-1.3-2.4-3-4.8-1.6-2.5-3-5-3-5.6 0-.6-.4-1.1-1-1.1-.5 0-1-.4-1-1 0-.5-4.9-8.9-10.8-18.7-5.9-9.8-11.1-18.5-11.5-19.3-.4-.8-5.1-8.7-10.4-17.5l-9.8-16-68.3-.2-68.3-.3 1.8 3.3z"/><path d="M309 210.9c0 .5.8 1.9 1.8 3.2.9 1.3 2.3 3.5 3.1 4.9 3.1 5.4 14.4 24.7 16.2 27.5 1 1.6 2.3 3.9 2.8 5s2.1 3.7 3.5 5.8c1.4 2.1 2.6 4 2.6 4.3 0 .2 2.5 4.5 5.5 9.5s5.5 9.2 5.5 9.4c0 .2 2.5 4.4 5.5 9.4s5.5 9.5 5.5 10 .3 1.1.8 1.3c.4.1 3.8 5.7 7.6 12.3 3.8 6.6 7 12.2 7.2 12.4.2.2 47.1.3 104.3.3 111.3 0 104.9.3 107.7-4.7 4.2-7.6 47-80.5 48.5-82.7 1-1.5 1.9-2.9 1.9-3.2 0-.3 3.2-5.8 7-12.2 3.9-6.5 7-12.1 7-12.5 0-.4-77.4-.8-172-.8s-172 .4-172 .8z"/></svg>